<svg xmlns="http://www.w3.org/2000/svg" xmlns:xlink="http://www.w3.org/1999/xlink" viewBox="0 0 180 46.093"><path d="M 19.888 45.822 L 26.474 45.822 L 26.474 30.943 L 36.995 41.464 L 41.651 36.807 L 31.13 26.286 L 46.009 26.286 L 46.009 19.7 L 31.13 19.7 L 41.652 9.179 L 36.995 4.522 L 26.474 15.044 L 26.474 0.165 L 19.888 0.165 L 19.888 15.044 L 9.366 4.522 L 4.71 9.179 L 15.231 19.701 L 0.352 19.701 L 0.352 26.286 L 15.232 26.286 L 4.711 36.807 L 9.367 41.464 L 19.888 30.943 L 19.888 45.821 Z M 19.888 26.286 L 26.474 26.286 L 26.474 19.701 L 19.888 19.701 Z" fill="rgb(255,255,255)"></path><path d="M 68.22 37.554 C 65.46 37.554 63.275 36.871 61.667 35.504 C 60.086 34.137 59.295 32.342 59.295 30.117 C 59.295 27.786 60.099 25.977 61.707 24.691 C 63.315 23.404 65.62 22.761 68.622 22.761 L 76.26 22.761 L 76.26 21.756 C 76.26 18.54 74.437 16.932 70.792 16.932 C 67.711 16.932 65.861 18.044 65.245 20.268 L 59.778 20.268 C 60.234 17.776 61.413 15.86 63.315 14.52 C 65.245 13.18 67.751 12.51 70.833 12.51 C 74.29 12.51 76.93 13.314 78.752 14.922 C 80.574 16.503 81.486 18.808 81.486 21.836 L 81.486 31.605 L 84.099 31.605 L 84.099 37.112 L 78.431 37.112 L 78.431 33.293 L 76.742 33.293 C 75.912 34.633 74.786 35.678 73.365 36.428 C 71.945 37.179 70.23 37.554 68.22 37.554 Z M 69.024 33.293 C 70.391 33.293 71.623 33.025 72.722 32.489 C 73.821 31.953 74.679 31.243 75.295 30.358 C 75.938 29.447 76.26 28.442 76.26 27.344 L 76.26 26.58 L 68.903 26.58 C 65.955 26.58 64.481 27.679 64.481 29.876 C 64.481 30.948 64.883 31.792 65.687 32.409 C 66.491 32.998 67.603 33.293 69.024 33.293 Z M 89.014 37.112 L 89.014 12.992 L 94.481 12.992 L 94.481 37.113 L 89.014 37.113 Z M 88.757 4.579 L 94.481 4.579 L 94.481 10.055 L 88.757 10.055 Z M 117.582 37.554 C 114.821 37.554 112.637 36.871 111.029 35.504 C 109.448 34.137 108.657 32.342 108.657 30.117 C 108.657 27.786 109.461 25.977 111.069 24.69 C 112.677 23.404 114.982 22.761 117.984 22.761 L 125.622 22.761 L 125.622 21.755 C 125.622 18.54 123.799 16.932 120.155 16.932 C 117.072 16.932 115.223 18.044 114.607 20.268 L 109.14 20.268 C 109.595 17.776 110.774 15.86 112.677 14.52 C 114.607 13.18 117.113 12.51 120.195 12.51 C 123.652 12.51 126.292 13.314 128.114 14.922 C 129.936 16.503 130.848 18.808 130.848 21.836 L 130.848 31.605 L 133.461 31.605 L 133.461 37.112 L 127.792 37.112 L 127.792 33.293 L 126.104 33.293 C 125.273 34.633 124.148 35.678 122.727 36.428 C 121.307 37.179 119.592 37.554 117.582 37.554 Z M 118.386 33.293 C 119.752 33.293 120.985 33.025 122.084 32.489 C 123.183 31.953 124.04 31.243 124.657 30.358 C 125.3 29.447 125.622 28.442 125.622 27.343 L 125.622 26.58 L 118.265 26.58 C 115.317 26.58 113.843 27.678 113.843 29.876 C 113.843 30.948 114.245 31.792 115.049 32.409 C 115.853 32.998 116.965 33.293 118.386 33.293 Z M 138.552 37.112 L 138.552 18.5 L 135.778 18.5 L 135.778 12.992 L 141.487 12.992 L 141.487 16.811 L 143.336 16.811 C 144.086 15.444 145.131 14.399 146.472 13.675 C 147.838 12.925 149.486 12.55 151.416 12.55 C 153.319 12.55 154.94 12.911 156.28 13.635 C 157.647 14.358 158.746 15.444 159.577 16.891 L 159.697 16.891 C 161.466 13.997 164.226 12.55 167.978 12.55 C 171.007 12.55 173.392 13.434 175.134 15.203 C 176.876 16.945 177.747 19.33 177.747 22.358 L 177.747 31.603 L 172.279 31.603 L 172.279 23.323 C 172.279 19.357 170.377 17.374 166.571 17.374 C 162.766 17.374 160.863 19.357 160.863 23.323 L 160.863 37.112 L 155.396 37.112 L 155.396 23.324 C 155.396 19.357 153.48 17.374 149.647 17.374 C 147.798 17.374 146.391 17.883 145.426 18.902 C 144.488 19.893 144.019 21.367 144.019 23.323 L 144.019 37.112 Z" fill="rgb(255,255,255)"></path><path d="M 174.246 31.597 L 179.899 31.597 L 179.899 37.107 L 174.246 37.107 Z M 97.558 31.597 L 103.211 31.597 L 103.211 37.107 L 97.558 37.107 Z" fill="rgb(255,255,255)"></path></svg>
