<svg xmlns="http://www.w3.org/2000/svg" width="512" height="512" viewBox="0 0 512 512" fill="none"><metadata><rdf:RDF xmlns:rdf="http://www.w3.org/1999/02/22-rdf-syntax-ns#" xmlns:dc="http://purl.org/dc/elements/1.1/"><rdf:Description><dc:creator>RealFaviconGenerator</dc:creator><dc:source>https://realfavicongenerator.net</dc:source></rdf:Description></rdf:RDF></metadata><rect width="512" height="512" fill="black"></rect><path d="M375.203 295C365.261 295 356.123 294.388 347.788 293.165C339.529 292.018 332.341 290.029 326.223 287.2C320.182 284.294 315.479 280.356 312.114 275.385C308.826 270.415 307.182 264.144 307.182 256.574C307.182 249.003 308.864 242.694 312.229 237.647C315.594 232.524 320.411 228.471 326.682 225.488C333.029 222.429 340.561 220.25 349.279 218.95C358.073 217.65 367.861 217 378.644 217C392.791 217 404.644 218.3 414.202 220.9C423.838 223.5 431.179 227.209 436.226 232.026C441.273 236.768 443.988 242.426 444.37 249.003H414.547C413.629 247.321 411.947 245.715 409.5 244.185C407.052 242.579 403.382 241.279 398.488 240.285C393.594 239.291 386.979 238.794 378.644 238.794C368.855 238.794 360.902 239.406 354.785 240.629C348.667 241.776 344.194 243.65 341.364 246.25C338.535 248.85 337.12 252.291 337.12 256.574C337.12 260.321 338.573 263.418 341.479 265.865C344.385 268.312 349.05 270.147 355.473 271.371C361.897 272.594 370.385 273.206 380.938 273.206C388.355 273.206 394.779 272.9 400.208 272.288C405.714 271.6 410.685 270.568 415.12 269.191C419.632 267.815 424.105 266.094 428.541 264.029L431.294 267.356C426.553 276.303 419.517 283.147 410.188 287.888C400.858 292.629 389.197 295 375.203 295ZM423.494 292.706C423.494 290.412 423.8 287.812 424.411 284.906C425.023 282 425.788 278.979 426.705 275.844C427.7 272.632 428.655 269.612 429.573 266.782H384.838V254.738H445.976V292.706H423.494Z" fill="white"></path><path d="M200.897 281.579V264.373H279.356V281.579H200.897ZM175.203 292.706L224.412 219.294H256.3L305.968 292.706H274.424L231.868 226.979H248.959L206.747 292.706H175.203Z" fill="white"></path><path d="M66.2638 219.294H185.558V241.088H66.2638V219.294ZM111.573 239.597H140.249V292.706H111.573V239.597Z" fill="white"></path></svg>